<svg width="1242" height="89" viewBox="0 0 1242 89" fill="none" xmlns="http://www.w3.org/2000/svg">
<path d="M18.5391 1.6875V87H0.960938L0.960938 1.6875L18.5391 1.6875ZM52.5234 38.1328V51.8438H13.7344V38.1328H52.5234ZM56.625 1.6875V15.457H13.7344V1.6875L56.625 1.6875ZM113.93 1.6875L131.449 1.6875V58.0547C131.449 64.6172 130.043 70.1445 127.23 74.6367C124.457 79.1289 120.609 82.5078 115.688 84.7734C110.805 87.0391 105.18 88.1719 98.8125 88.1719C92.4453 88.1719 86.7812 87.0391 81.8203 84.7734C76.8984 82.5078 73.0312 79.1289 70.2188 74.6367C67.4453 70.1445 66.0586 64.6172 66.0586 58.0547V1.6875H83.6367V58.0547C83.6367 61.8828 84.2422 65.0078 85.4531 67.4297C86.6641 69.8516 88.4023 71.6289 90.668 72.7617C92.9727 73.8945 95.6875 74.4609 98.8125 74.4609C102.016 74.4609 104.73 73.8945 106.957 72.7617C109.223 71.6289 110.941 69.8516 112.113 67.4297C113.324 65.0078 113.93 61.8828 113.93 58.0547V1.6875ZM180.434 60.8086V1.6875L197.953 1.6875V60.8086C197.953 66.5117 196.703 71.4141 194.203 75.5156C191.703 79.5781 188.285 82.7031 183.949 84.8906C179.652 87.0781 174.809 88.1719 169.418 88.1719C163.832 88.1719 158.891 87.2344 154.594 85.3594C150.297 83.4844 146.918 80.6133 144.457 76.7461C141.996 72.8398 140.766 67.8984 140.766 61.9219H158.402C158.402 65.0469 158.832 67.5273 159.691 69.3633C160.59 71.1992 161.859 72.5078 163.5 73.2891C165.141 74.0703 167.113 74.4609 169.418 74.4609C171.645 74.4609 173.578 73.9336 175.219 72.8789C176.859 71.8242 178.129 70.2812 179.027 68.25C179.965 66.2188 180.434 63.7383 180.434 60.8086ZM231.645 1.6875V87H214.125V1.6875L231.645 1.6875ZM292.523 64.6758C292.523 63.1523 292.289 61.7852 291.82 60.5742C291.391 59.3242 290.57 58.1914 289.359 57.1758C288.148 56.1211 286.449 55.0859 284.262 54.0703C282.074 53.0547 279.242 52 275.766 50.9062C271.898 49.6562 268.227 48.25 264.75 46.6875C261.312 45.125 258.266 43.3086 255.609 41.2383C252.992 39.1289 250.922 36.6875 249.398 33.9141C247.914 31.1406 247.172 27.918 247.172 24.2461C247.172 20.6914 247.953 17.4687 249.516 14.5781C251.078 11.6484 253.266 9.14844 256.078 7.07812C258.891 4.96875 262.211 3.34766 266.039 2.21484C269.906 1.08203 274.145 0.515625 278.754 0.515625C285.043 0.515625 290.531 1.64844 295.219 3.91406C299.906 6.17969 303.539 9.28516 306.117 13.2305C308.734 17.1758 310.043 21.6875 310.043 26.7656H292.582C292.582 24.2656 292.055 22.0781 291 20.2031C289.984 18.2891 288.422 16.7852 286.312 15.6914C284.242 14.5977 281.625 14.0508 278.461 14.0508C275.414 14.0508 272.875 14.5195 270.844 15.457C268.812 16.3555 267.289 17.5859 266.273 19.1484C265.258 20.6719 264.75 22.3906 264.75 24.3047C264.75 25.75 265.102 27.0586 265.805 28.2305C266.547 29.4023 267.641 30.4961 269.086 31.5117C270.531 32.5273 272.309 33.4844 274.418 34.3828C276.527 35.2812 278.969 36.1602 281.742 37.0195C286.391 38.4258 290.473 40.0078 293.988 41.7656C297.543 43.5234 300.512 45.4961 302.895 47.6836C305.277 49.8711 307.074 52.3516 308.285 55.125C309.496 57.8984 310.102 61.043 310.102 64.5586C310.102 68.2695 309.379 71.5898 307.934 74.5195C306.488 77.4492 304.398 79.9297 301.664 81.9609C298.93 83.9922 295.668 85.5352 291.879 86.5898C288.09 87.6445 283.852 88.1719 279.164 88.1719C274.945 88.1719 270.785 87.625 266.684 86.5312C262.582 85.3984 258.852 83.6992 255.492 81.4336C252.172 79.168 249.516 76.2773 247.523 72.7617C245.531 69.2461 244.535 65.0859 244.535 60.2812H262.172C262.172 62.9375 262.582 65.1836 263.402 67.0195C264.223 68.8555 265.375 70.3398 266.859 71.4727C268.383 72.6055 270.18 73.4258 272.25 73.9336C274.359 74.4414 276.664 74.6953 279.164 74.6953C282.211 74.6953 284.711 74.2656 286.664 73.4062C288.656 72.5469 290.121 71.3555 291.059 69.832C292.035 68.3086 292.523 66.5898 292.523 64.6758ZM378.949 36.4336V50.1445H334.418V36.4336H378.949ZM339.633 1.6875V87H322.055V1.6875H339.633ZM391.488 1.6875V87H373.969V1.6875L391.488 1.6875ZM425.473 1.6875V87H407.953V1.6875L425.473 1.6875ZM449.965 1.6875H464.848L486.762 64.3242L508.676 1.6875L523.559 1.6875L492.738 87H480.785L449.965 1.6875ZM441.938 1.6875L456.762 1.6875L459.457 62.7422V87H441.938V1.6875ZM516.762 1.6875H531.645V87H514.066V62.7422L516.762 1.6875ZM582.797 16.2773L559.594 87H540.902L572.602 1.6875L584.496 1.6875L582.797 16.2773ZM602.074 87L578.812 16.2773L576.938 1.6875L588.949 1.6875L620.824 87H602.074ZM601.02 55.2422V69.0117H555.961V55.2422H601.02ZM676.195 1.6875V87H658.617V1.6875L676.195 1.6875ZM727.289 1.6875L693.48 43.8164L673.969 64.793L670.805 48.1523L683.988 30.1055L705.727 1.6875H727.289ZM707.309 87L682.172 47.5664L695.18 36.668L728.109 87H707.309ZM792.152 73.2891V87H746.742V73.2891H792.152ZM752.484 1.6875V87H734.906V1.6875L752.484 1.6875ZM786.234 36.4336V49.793L746.742 49.793V36.4336L786.234 36.4336ZM792.094 1.6875V15.457H746.742V1.6875L792.094 1.6875ZM871.84 1.6875V87H854.262L819.984 29.8125V87H802.406V1.6875H819.984L854.32 58.9336V1.6875L871.84 1.6875ZM931.547 64.6758C931.547 63.1523 931.312 61.7852 930.844 60.5742C930.414 59.3242 929.594 58.1914 928.383 57.1758C927.172 56.1211 925.473 55.0859 923.285 54.0703C921.098 53.0547 918.266 52 914.789 50.9062C910.922 49.6562 907.25 48.25 903.773 46.6875C900.336 45.125 897.289 43.3086 894.633 41.2383C892.016 39.1289 889.945 36.6875 888.422 33.9141C886.938 31.1406 886.195 27.918 886.195 24.2461C886.195 20.6914 886.977 17.4687 888.539 14.5781C890.102 11.6484 892.289 9.14844 895.102 7.07812C897.914 4.96875 901.234 3.34766 905.062 2.21484C908.93 1.08203 913.168 0.515625 917.777 0.515625C924.066 0.515625 929.555 1.64844 934.242 3.91406C938.93 6.17969 942.562 9.28516 945.141 13.2305C947.758 17.1758 949.066 21.6875 949.066 26.7656H931.605C931.605 24.2656 931.078 22.0781 930.023 20.2031C929.008 18.2891 927.445 16.7852 925.336 15.6914C923.266 14.5977 920.648 14.0508 917.484 14.0508C914.438 14.0508 911.898 14.5195 909.867 15.457C907.836 16.3555 906.312 17.5859 905.297 19.1484C904.281 20.6719 903.773 22.3906 903.773 24.3047C903.773 25.75 904.125 27.0586 904.828 28.2305C905.57 29.4023 906.664 30.4961 908.109 31.5117C909.555 32.5273 911.332 33.4844 913.441 34.3828C915.551 35.2812 917.992 36.1602 920.766 37.0195C925.414 38.4258 929.496 40.0078 933.012 41.7656C936.566 43.5234 939.535 45.4961 941.918 47.6836C944.301 49.8711 946.098 52.3516 947.309 55.125C948.52 57.8984 949.125 61.043 949.125 64.5586C949.125 68.2695 948.402 71.5898 946.957 74.5195C945.512 77.4492 943.422 79.9297 940.688 81.9609C937.953 83.9922 934.691 85.5352 930.902 86.5898C927.113 87.6445 922.875 88.1719 918.188 88.1719C913.969 88.1719 909.809 87.625 905.707 86.5312C901.605 85.3984 897.875 83.6992 894.516 81.4336C891.195 79.168 888.539 76.2773 886.547 72.7617C884.555 69.2461 883.559 65.0859 883.559 60.2812H901.195C901.195 62.9375 901.605 65.1836 902.426 67.0195C903.246 68.8555 904.398 70.3398 905.883 71.4727C907.406 72.6055 909.203 73.4258 911.273 73.9336C913.383 74.4414 915.688 74.6953 918.188 74.6953C921.234 74.6953 923.734 74.2656 925.688 73.4062C927.68 72.5469 929.145 71.3555 930.082 69.832C931.059 68.3086 931.547 66.5898 931.547 64.6758ZM1018.32 73.2891V87H972.914V73.2891H1018.32ZM978.656 1.6875V87H961.078V1.6875H978.656ZM1012.41 36.4336V49.793H972.914V36.4336H1012.41ZM1018.27 1.6875V15.457H972.914V1.6875L1018.27 1.6875ZM1067.89 1.6875V87H1050.38V1.6875L1067.89 1.6875ZM1094.14 1.6875V15.457H1024.54V1.6875L1094.14 1.6875ZM1147.64 64.6758C1147.64 63.1523 1147.41 61.7852 1146.94 60.5742C1146.51 59.3242 1145.69 58.1914 1144.48 57.1758C1143.27 56.1211 1141.57 55.0859 1139.38 54.0703C1137.19 53.0547 1134.36 52 1130.88 50.9062C1127.02 49.6562 1123.34 48.25 1119.87 46.6875C1116.43 45.125 1113.38 43.3086 1110.73 41.2383C1108.11 39.1289 1106.04 36.6875 1104.52 33.9141C1103.03 31.1406 1102.29 27.918 1102.29 24.2461C1102.29 20.6914 1103.07 17.4687 1104.63 14.5781C1106.2 11.6484 1108.38 9.14844 1111.2 7.07812C1114.01 4.96875 1117.33 3.34766 1121.16 2.21484C1125.02 1.08203 1129.26 0.515625 1133.87 0.515625C1140.16 0.515625 1145.65 1.64844 1150.34 3.91406C1155.02 6.17969 1158.66 9.28516 1161.23 13.2305C1163.85 17.1758 1165.16 21.6875 1165.16 26.7656H1147.7C1147.7 24.2656 1147.17 22.0781 1146.12 20.2031C1145.1 18.2891 1143.54 16.7852 1141.43 15.6914C1139.36 14.5977 1136.74 14.0508 1133.58 14.0508C1130.53 14.0508 1127.99 14.5195 1125.96 15.457C1123.93 16.3555 1122.41 17.5859 1121.39 19.1484C1120.38 20.6719 1119.87 22.3906 1119.87 24.3047C1119.87 25.75 1120.22 27.0586 1120.92 28.2305C1121.66 29.4023 1122.76 30.4961 1124.2 31.5117C1125.65 32.5273 1127.43 33.4844 1129.54 34.3828C1131.64 35.2812 1134.09 36.1602 1136.86 37.0195C1141.51 38.4258 1145.59 40.0078 1149.11 41.7656C1152.66 43.5234 1155.63 45.4961 1158.01 47.6836C1160.39 49.8711 1162.19 52.3516 1163.4 55.125C1164.61 57.8984 1165.22 61.043 1165.22 64.5586C1165.22 68.2695 1164.5 71.5898 1163.05 74.5195C1161.61 77.4492 1159.52 79.9297 1156.78 81.9609C1154.05 83.9922 1150.79 85.5352 1147 86.5898C1143.21 87.6445 1138.97 88.1719 1134.28 88.1719C1130.06 88.1719 1125.9 87.625 1121.8 86.5312C1117.7 85.3984 1113.97 83.6992 1110.61 81.4336C1107.29 79.168 1104.63 76.2773 1102.64 72.7617C1100.65 69.2461 1099.65 65.0859 1099.65 60.2812H1117.29C1117.29 62.9375 1117.7 65.1836 1118.52 67.0195C1119.34 68.8555 1120.49 70.3398 1121.98 71.4727C1123.5 72.6055 1125.3 73.4258 1127.37 73.9336C1129.48 74.4414 1131.78 74.6953 1134.28 74.6953C1137.33 74.6953 1139.83 74.2656 1141.78 73.4062C1143.77 72.5469 1145.24 71.3555 1146.18 69.832C1147.15 68.3086 1147.64 66.5898 1147.64 64.6758ZM1224.28 1.6875H1241.8V58.0547C1241.8 64.6172 1240.39 70.1445 1237.58 74.6367C1234.81 79.1289 1230.96 82.5078 1226.04 84.7734C1221.16 87.0391 1215.53 88.1719 1209.16 88.1719C1202.8 88.1719 1197.13 87.0391 1192.17 84.7734C1187.25 82.5078 1183.38 79.1289 1180.57 74.6367C1177.8 70.1445 1176.41 64.6172 1176.41 58.0547V1.6875L1193.99 1.6875V58.0547C1193.99 61.8828 1194.59 65.0078 1195.8 67.4297C1197.02 69.8516 1198.75 71.6289 1201.02 72.7617C1203.32 73.8945 1206.04 74.4609 1209.16 74.4609C1212.37 74.4609 1215.08 73.8945 1217.31 72.7617C1219.57 71.6289 1221.29 69.8516 1222.46 67.4297C1223.68 65.0078 1224.28 61.8828 1224.28 58.0547V1.6875Z" fill="#FADA89" fill-opacity="0.4"/>
</svg>
