<svg width="158" height="70" viewBox="0 0 158 70" fill="none" xmlns="http://www.w3.org/2000/svg">
<path d="M1.971 23.226C0.755 23.226 0.147 22.5967 0.147 21.338V2.71401C0.147 1.45535 0.776333 0.826012 2.035 0.826012H13.459C14.739 0.826012 15.379 1.40201 15.379 2.55401C15.379 3.68468 14.739 4.25001 13.459 4.25001H3.827V10.074H12.499C13.0963 10.074 13.555 10.2233 13.875 10.522C14.2163 10.8207 14.387 11.2473 14.387 11.802C14.387 12.954 13.7577 13.53 12.499 13.53H3.827V21.338C3.827 22.5967 3.20833 23.226 1.971 23.226ZM26.56 23.642C23.7653 23.642 21.632 22.906 20.16 21.434C18.688 19.9407 17.952 17.7113 17.952 14.746V2.71401C17.952 2.09535 18.112 1.62601 18.432 1.30601C18.7733 0.986012 19.2427 0.826012 19.84 0.826012C21.0773 0.826012 21.696 1.45535 21.696 2.71401V14.554C21.696 16.474 22.1227 17.8713 22.976 18.746C23.8507 19.5993 25.0453 20.026 26.56 20.026C28.0747 20.026 29.2587 19.5993 30.112 18.746C30.9653 17.8713 31.392 16.474 31.392 14.554V2.71401C31.392 1.45535 32.0107 0.826012 33.248 0.826012C34.4853 0.826012 35.104 1.45535 35.104 2.71401V14.746C35.104 17.7113 34.3787 19.9407 32.928 21.434C31.4773 22.906 29.3547 23.642 26.56 23.642ZM44.965 23.738C42.789 23.738 41.1357 23.2367 40.005 22.234C38.8957 21.21 38.2023 19.834 37.925 18.106C37.8183 17.4873 37.925 17.0073 38.245 16.666C38.565 16.3033 39.0557 16.122 39.717 16.122C40.293 16.122 40.7197 16.2713 40.997 16.57C41.2743 16.8687 41.509 17.306 41.701 17.882C42.1277 19.3753 43.2157 20.122 44.965 20.122C46.117 20.122 46.981 19.802 47.557 19.162C48.133 18.522 48.421 17.5087 48.421 16.122V2.71401C48.421 1.45535 49.0503 0.826012 50.309 0.826012C51.5463 0.826012 52.165 1.45535 52.165 2.71401V16.122C52.165 17.6367 51.9197 18.97 51.429 20.122C50.9383 21.274 50.1597 22.17 49.093 22.81C48.0477 23.4287 46.6717 23.738 44.965 23.738ZM58.221 23.226C57.005 23.226 56.397 22.5967 56.397 21.338V2.71401C56.397 1.45535 57.005 0.826012 58.221 0.826012C59.4583 0.826012 60.077 1.45535 60.077 2.71401V21.338C60.077 22.5967 59.4583 23.226 58.221 23.226ZM72.7118 23.674C71.1331 23.674 69.6611 23.4073 68.2958 22.874C66.9304 22.3193 65.7571 21.402 64.7758 20.122C64.4131 19.61 64.2851 19.1407 64.3918 18.714C64.5198 18.266 64.8398 17.9033 65.3518 17.626C65.8424 17.3273 66.2904 17.242 66.6958 17.37C67.1011 17.4767 67.5064 17.754 67.9118 18.202C68.4878 18.8207 69.1704 19.3007 69.9598 19.642C70.7704 19.9833 71.7304 20.154 72.8398 20.154C74.3331 20.154 75.3784 19.8873 75.9758 19.354C76.5944 18.7993 76.9038 18.0527 76.9038 17.114C76.9038 16.5167 76.7651 16.0047 76.4878 15.578C76.2318 15.1513 75.6771 14.7567 74.8238 14.394C73.9918 14.01 72.7011 13.626 70.9518 13.242C68.8824 12.7513 67.3464 11.9727 66.3438 10.906C65.3624 9.83935 64.8718 8.48468 64.8718 6.84201C64.8718 5.54068 65.1811 4.39935 65.7998 3.41801C66.4398 2.41535 67.3251 1.63668 68.4558 1.08201C69.6078 0.527345 70.9518 0.250011 72.4878 0.250011C74.0878 0.250011 75.4851 0.527345 76.6798 1.08201C77.8744 1.63668 78.8771 2.35135 79.6878 3.22601C80.0931 3.67401 80.2531 4.12201 80.1678 4.57001C80.0824 5.01801 79.8051 5.42335 79.3358 5.78601C78.8664 6.17001 78.4184 6.31935 77.9918 6.23401C77.5651 6.14868 77.1384 5.90335 76.7118 5.49801C76.1784 5.00735 75.5704 4.60201 74.8878 4.28201C74.2051 3.96201 73.3944 3.80201 72.4558 3.80201C71.3464 3.80201 70.4398 4.04734 69.7358 4.53801C69.0531 5.00735 68.7118 5.72201 68.7118 6.68201C68.7118 7.10868 68.8078 7.52468 68.9998 7.93001C69.2131 8.31401 69.6611 8.68735 70.3438 9.05001C71.0478 9.41268 72.1251 9.76468 73.5758 10.106C76.1358 10.682 77.9811 11.546 79.1118 12.698C80.2424 13.85 80.8078 15.3007 80.8078 17.05C80.8078 19.1833 80.0611 20.826 78.5678 21.978C77.0958 23.1087 75.1438 23.674 72.7118 23.674ZM86.3445 23.226C85.1712 23.226 84.5845 22.6393 84.5845 21.466V2.58601C84.5845 1.41268 85.1712 0.826012 86.3445 0.826012H86.5045C87.6778 0.826012 88.2645 1.41268 88.2645 2.58601V9.72201H98.4405V2.58601C98.4405 1.41268 99.0378 0.826012 100.233 0.826012H100.425C101.598 0.826012 102.185 1.41268 102.185 2.58601V21.466C102.185 22.6393 101.598 23.226 100.425 23.226H100.233C99.0378 23.226 98.4405 22.6393 98.4405 21.466V13.146H88.2645V21.466C88.2645 22.6393 87.6778 23.226 86.5045 23.226H86.3445ZM108.534 23.226C107.318 23.226 106.71 22.5967 106.71 21.338V2.71401C106.71 1.45535 107.318 0.826012 108.534 0.826012C109.771 0.826012 110.39 1.45535 110.39 2.71401V21.338C110.39 22.5967 109.771 23.226 108.534 23.226ZM116.784 23.226C115.547 23.226 114.928 22.5967 114.928 21.338V2.71401C114.928 1.98868 115.11 1.49801 115.472 1.24201C115.856 0.964678 116.411 0.826012 117.136 0.826012C118.118 0.826012 118.864 1.25268 119.376 2.10601L125.04 11.578L130.64 2.13801C130.939 1.60468 131.28 1.25268 131.664 1.08201C132.07 0.911345 132.592 0.826012 133.232 0.826012C134.491 0.826012 135.12 1.45535 135.12 2.71401V21.338C135.12 22.5967 134.491 23.226 133.232 23.226C131.974 23.226 131.344 22.5967 131.344 21.338V7.25801L126.832 15.066C126.384 15.9407 125.776 16.378 125.008 16.378C124.24 16.378 123.632 15.9407 123.184 15.066L118.64 7.25801V21.338C118.64 22.5967 118.022 23.226 116.784 23.226ZM139.775 23.226C139.156 23.226 138.73 23.0447 138.495 22.682C138.26 22.3193 138.26 21.8287 138.495 21.21L145.727 2.23401C146.047 1.29535 146.719 0.826012 147.743 0.826012H147.999C149.023 0.826012 149.695 1.29535 150.015 2.23401L157.279 21.21C157.514 21.8287 157.503 22.3193 157.247 22.682C157.012 23.0447 156.586 23.226 155.967 23.226H155.359C154.356 23.226 153.695 22.746 153.375 21.786L152.127 18.298H143.519L142.271 21.786C141.951 22.746 141.29 23.226 140.287 23.226H139.775ZM144.735 14.874H150.943L147.871 6.13801L144.735 14.874ZM1.971 69.226C0.755 69.226 0.147 68.5967 0.147 67.338V48.714C0.147 47.4553 0.755 46.826 1.971 46.826C3.20833 46.826 3.827 47.4553 3.827 48.714V56.554L11.027 48.266C11.4963 47.69 11.923 47.306 12.307 47.114C12.691 46.922 13.1817 46.826 13.779 46.826C14.3123 46.826 14.707 46.954 14.963 47.21C15.219 47.466 15.3363 47.7753 15.315 48.138C15.315 48.5007 15.187 48.842 14.931 49.162L7.763 57.258L15.379 66.954C15.635 67.2953 15.7737 67.658 15.795 68.042C15.8163 68.426 15.6883 68.746 15.411 69.002C15.155 69.258 14.7177 69.386 14.099 69.386C13.459 69.386 12.9363 69.2687 12.531 69.034C12.147 68.778 11.8057 68.4473 11.507 68.042L3.827 57.77V67.338C3.827 68.5967 3.20833 69.226 1.971 69.226ZM21.5663 69.226C20.3076 69.226 19.6783 68.5967 19.6783 67.338V48.714C19.6783 47.4553 20.3076 46.826 21.5663 46.826H32.7663C34.0249 46.826 34.6543 47.402 34.6543 48.554C34.6543 49.6847 34.0249 50.25 32.7663 50.25H23.3583V56.074H31.7743C33.0329 56.074 33.6623 56.65 33.6623 57.802C33.6623 58.954 33.0329 59.53 31.7743 59.53H23.3583V65.802H33.1183C34.3769 65.802 35.0063 66.3673 35.0063 67.498C35.0063 68.65 34.3769 69.226 33.1183 69.226H21.5663ZM40.2523 69.226C39.0363 69.226 38.4283 68.5967 38.4283 67.338V48.714C38.4283 47.4553 39.0363 46.826 40.2523 46.826H40.6683C41.6283 46.826 42.3856 47.242 42.9403 48.074L52.6683 62.73V48.714C52.6683 48.0953 52.8283 47.626 53.1483 47.306C53.4896 46.986 53.9589 46.826 54.5563 46.826C55.7936 46.826 56.4123 47.4553 56.4123 48.714V67.338C56.4123 68.5967 55.8256 69.226 54.6523 69.226H54.3323C53.3509 69.226 52.5936 68.81 52.0603 67.978L42.1083 52.874V67.338C42.1083 68.5967 41.4896 69.226 40.2523 69.226ZM69.0243 69.674C67.4456 69.674 65.9736 69.4073 64.6083 68.874C63.2429 68.3193 62.0696 67.402 61.0883 66.122C60.7256 65.61 60.5976 65.1407 60.7043 64.714C60.8323 64.266 61.1523 63.9033 61.6643 63.626C62.1549 63.3273 62.6029 63.242 63.0083 63.37C63.4136 63.4767 63.8189 63.754 64.2243 64.202C64.8003 64.8207 65.4829 65.3007 66.2723 65.642C67.0829 65.9833 68.0429 66.154 69.1523 66.154C70.6456 66.154 71.6909 65.8873 72.2883 65.354C72.9069 64.7993 73.2163 64.0527 73.2163 63.114C73.2163 62.5167 73.0776 62.0047 72.8003 61.578C72.5443 61.1513 71.9896 60.7567 71.1363 60.394C70.3043 60.01 69.0136 59.626 67.2643 59.242C65.1949 58.7513 63.6589 57.9727 62.6562 56.906C61.6749 55.8393 61.1843 54.4847 61.1843 52.842C61.1843 51.5407 61.4936 50.3993 62.1123 49.418C62.7523 48.4153 63.6376 47.6367 64.7683 47.082C65.9203 46.5273 67.2643 46.25 68.8003 46.25C70.4003 46.25 71.7976 46.5273 72.9923 47.082C74.1869 47.6367 75.1896 48.3513 76.0003 49.226C76.4056 49.674 76.5656 50.122 76.4803 50.57C76.3949 51.018 76.1176 51.4233 75.6483 51.786C75.1789 52.17 74.7309 52.3193 74.3043 52.234C73.8776 52.1487 73.4509 51.9033 73.0243 51.498C72.4909 51.0073 71.8829 50.602 71.2003 50.282C70.5176 49.962 69.7069 49.802 68.7683 49.802C67.6589 49.802 66.7523 50.0473 66.0483 50.538C65.3656 51.0073 65.0243 51.722 65.0243 52.682C65.0243 53.1087 65.1203 53.5247 65.3123 53.93C65.5256 54.314 65.9736 54.6873 66.6562 55.05C67.3603 55.4127 68.4376 55.7647 69.8883 56.106C72.4483 56.682 74.2936 57.546 75.4243 58.698C76.5549 59.85 77.1203 61.3007 77.1203 63.05C77.1203 65.1833 76.3736 66.826 74.8803 67.978C73.4083 69.1087 71.4563 69.674 69.0243 69.674ZM82.785 69.226C81.5263 69.226 80.897 68.5967 80.897 67.338V48.714C80.897 47.4553 81.5263 46.826 82.785 46.826H93.985C95.2437 46.826 95.873 47.402 95.873 48.554C95.873 49.6847 95.2437 50.25 93.985 50.25H84.577V56.074H92.993C94.2517 56.074 94.881 56.65 94.881 57.802C94.881 58.954 94.2517 59.53 92.993 59.53H84.577V65.802H94.337C95.5957 65.802 96.225 66.3673 96.225 67.498C96.225 68.65 95.5957 69.226 94.337 69.226H82.785ZM106.911 69.226C105.652 69.226 105.023 68.5967 105.023 67.338V50.25H100.159C98.9003 50.25 98.271 49.6847 98.271 48.554C98.271 47.402 98.9003 46.826 100.159 46.826H113.567C114.847 46.826 115.487 47.402 115.487 48.554C115.487 49.6847 114.847 50.25 113.567 50.25H108.767V67.338C108.767 68.5967 108.148 69.226 106.911 69.226ZM126.712 69.674C125.133 69.674 123.661 69.4073 122.296 68.874C120.93 68.3193 119.757 67.402 118.776 66.122C118.413 65.61 118.285 65.1407 118.392 64.714C118.52 64.266 118.84 63.9033 119.352 63.626C119.842 63.3273 120.29 63.242 120.696 63.37C121.101 63.4767 121.506 63.754 121.912 64.202C122.488 64.8207 123.17 65.3007 123.96 65.642C124.77 65.9833 125.73 66.154 126.84 66.154C128.333 66.154 129.378 65.8873 129.976 65.354C130.594 64.7993 130.904 64.0527 130.904 63.114C130.904 62.5167 130.765 62.0047 130.488 61.578C130.232 61.1513 129.677 60.7567 128.824 60.394C127.992 60.01 126.701 59.626 124.952 59.242C122.882 58.7513 121.346 57.9727 120.344 56.906C119.362 55.8393 118.872 54.4847 118.872 52.842C118.872 51.5407 119.181 50.3993 119.8 49.418C120.44 48.4153 121.325 47.6367 122.456 47.082C123.608 46.5273 124.952 46.25 126.488 46.25C128.088 46.25 129.485 46.5273 130.68 47.082C131.874 47.6367 132.877 48.3513 133.688 49.226C134.093 49.674 134.253 50.122 134.168 50.57C134.082 51.018 133.805 51.4233 133.336 51.786C132.866 52.17 132.418 52.3193 131.992 52.234C131.565 52.1487 131.138 51.9033 130.712 51.498C130.178 51.0073 129.57 50.602 128.888 50.282C128.205 49.962 127.394 49.802 126.456 49.802C125.346 49.802 124.44 50.0473 123.736 50.538C123.053 51.0073 122.712 51.722 122.712 52.682C122.712 53.1087 122.808 53.5247 123 53.93C123.213 54.314 123.661 54.6873 124.344 55.05C125.048 55.4127 126.125 55.7647 127.576 56.106C130.136 56.682 131.981 57.546 133.112 58.698C134.242 59.85 134.808 61.3007 134.808 63.05C134.808 65.1833 134.061 66.826 132.568 67.978C131.096 69.1087 129.144 69.674 126.712 69.674ZM146.873 69.642C144.078 69.642 141.945 68.906 140.473 67.434C139.001 65.9407 138.265 63.7113 138.265 60.746V48.714C138.265 48.0953 138.425 47.626 138.745 47.306C139.086 46.986 139.555 46.826 140.153 46.826C141.39 46.826 142.009 47.4553 142.009 48.714V60.554C142.009 62.474 142.435 63.8713 143.289 64.746C144.163 65.5993 145.358 66.026 146.873 66.026C148.387 66.026 149.571 65.5993 150.425 64.746C151.278 63.8713 151.705 62.474 151.705 60.554V48.714C151.705 47.4553 152.323 46.826 153.561 46.826C154.798 46.826 155.417 47.4553 155.417 48.714V60.746C155.417 63.7113 154.691 65.9407 153.241 67.434C151.79 68.906 149.667 69.642 146.873 69.642Z" fill="black"/>
</svg>
