<svg width="158" height="70" viewBox="0 0 158 70" fill="none" xmlns="http://www.w3.org/2000/svg">
<path d="M2.096 23.0001C0.88 23.0001 0.272 22.3708 0.272 21.1121V2.48812C0.272 1.22945 0.901333 0.600121 2.16 0.600121H13.584C14.864 0.600121 15.504 1.17612 15.504 2.32812C15.504 3.45879 14.864 4.02412 13.584 4.02412H3.952V9.84812H12.624C13.2213 9.84812 13.68 9.99745 14 10.2961C14.3413 10.5948 14.512 11.0215 14.512 11.5761C14.512 12.7281 13.8827 13.3041 12.624 13.3041H3.952V21.1121C3.952 22.3708 3.33333 23.0001 2.096 23.0001ZM26.685 23.4161C23.8903 23.4161 21.757 22.6801 20.285 21.2081C18.813 19.7148 18.077 17.4855 18.077 14.5201V2.48812C18.077 1.86945 18.237 1.40012 18.557 1.08012C18.8983 0.76012 19.3677 0.600121 19.965 0.600121C21.2023 0.600121 21.821 1.22945 21.821 2.48812V14.3281C21.821 16.2481 22.2477 17.6455 23.101 18.5201C23.9757 19.3735 25.1703 19.8001 26.685 19.8001C28.1997 19.8001 29.3837 19.3735 30.237 18.5201C31.0903 17.6455 31.517 16.2481 31.517 14.3281V2.48812C31.517 1.22945 32.1357 0.600121 33.373 0.600121C34.6103 0.600121 35.229 1.22945 35.229 2.48812V14.5201C35.229 17.4855 34.5037 19.7148 33.053 21.2081C31.6023 22.6801 29.4797 23.4161 26.685 23.4161ZM45.09 23.5121C42.914 23.5121 41.2607 23.0108 40.13 22.0081C39.0207 20.9841 38.3273 19.6081 38.05 17.8801C37.9433 17.2615 38.05 16.7815 38.37 16.4401C38.69 16.0775 39.1807 15.8961 39.842 15.8961C40.418 15.8961 40.8447 16.0455 41.122 16.3441C41.3993 16.6428 41.634 17.0801 41.826 17.6561C42.2527 19.1495 43.3407 19.8961 45.09 19.8961C46.242 19.8961 47.106 19.5761 47.682 18.9361C48.258 18.2961 48.546 17.2828 48.546 15.8961V2.48812C48.546 1.22945 49.1753 0.600121 50.434 0.600121C51.6713 0.600121 52.29 1.22945 52.29 2.48812V15.8961C52.29 17.4108 52.0447 18.7441 51.554 19.8961C51.0633 21.0481 50.2847 21.9441 49.218 22.5841C48.1727 23.2028 46.7967 23.5121 45.09 23.5121ZM58.346 23.0001C57.13 23.0001 56.522 22.3708 56.522 21.1121V2.48812C56.522 1.22945 57.13 0.600121 58.346 0.600121C59.5833 0.600121 60.202 1.22945 60.202 2.48812V21.1121C60.202 22.3708 59.5833 23.0001 58.346 23.0001ZM72.8368 23.4481C71.2581 23.4481 69.7861 23.1815 68.4208 22.6481C67.0554 22.0935 65.8821 21.1761 64.9008 19.8961C64.5381 19.3841 64.4101 18.9148 64.5168 18.4881C64.6448 18.0401 64.9648 17.6775 65.4768 17.4001C65.9674 17.1015 66.4154 17.0161 66.8208 17.1441C67.2261 17.2508 67.6314 17.5281 68.0368 17.9761C68.6128 18.5948 69.2954 19.0748 70.0848 19.4161C70.8954 19.7575 71.8554 19.9281 72.9648 19.9281C74.4581 19.9281 75.5034 19.6615 76.1008 19.1281C76.7194 18.5735 77.0288 17.8268 77.0288 16.8881C77.0288 16.2908 76.8901 15.7788 76.6128 15.3521C76.3568 14.9255 75.8021 14.5308 74.9488 14.1681C74.1168 13.7841 72.8261 13.4001 71.0768 13.0161C69.0074 12.5255 67.4714 11.7468 66.4688 10.6801C65.4874 9.61345 64.9968 8.25879 64.9968 6.61612C64.9968 5.31479 65.3061 4.17345 65.9248 3.19212C66.5648 2.18946 67.4501 1.41079 68.5808 0.856121C69.7328 0.301454 71.0768 0.0241203 72.6128 0.0241203C74.2128 0.0241203 75.6101 0.301454 76.8048 0.856121C77.9994 1.41079 79.0021 2.12546 79.8128 3.00012C80.2181 3.44812 80.3781 3.89612 80.2928 4.34412C80.2074 4.79212 79.9301 5.19745 79.4608 5.56012C78.9914 5.94412 78.5434 6.09345 78.1168 6.00812C77.6901 5.92279 77.2634 5.67745 76.8368 5.27212C76.3034 4.78145 75.6954 4.37612 75.0128 4.05612C74.3301 3.73612 73.5194 3.57612 72.5808 3.57612C71.4714 3.57612 70.5648 3.82145 69.8608 4.31212C69.1781 4.78145 68.8368 5.49612 68.8368 6.45612C68.8368 6.88279 68.9328 7.29879 69.1248 7.70412C69.3381 8.08812 69.7861 8.46146 70.4688 8.82412C71.1728 9.18679 72.2501 9.53879 73.7008 9.88012C76.2608 10.4561 78.1061 11.3201 79.2368 12.4721C80.3674 13.6241 80.9328 15.0748 80.9328 16.8241C80.9328 18.9575 80.1861 20.6001 78.6928 21.7521C77.2208 22.8828 75.2688 23.4481 72.8368 23.4481ZM86.4695 23.0001C85.2962 23.0001 84.7095 22.4135 84.7095 21.2401V2.36012C84.7095 1.18679 85.2962 0.600121 86.4695 0.600121H86.6295C87.8028 0.600121 88.3895 1.18679 88.3895 2.36012V9.49612H98.5655V2.36012C98.5655 1.18679 99.1628 0.600121 100.358 0.600121H100.55C101.723 0.600121 102.31 1.18679 102.31 2.36012V21.2401C102.31 22.4135 101.723 23.0001 100.55 23.0001H100.358C99.1628 23.0001 98.5655 22.4135 98.5655 21.2401V12.9201H88.3895V21.2401C88.3895 22.4135 87.8028 23.0001 86.6295 23.0001H86.4695ZM108.659 23.0001C107.443 23.0001 106.835 22.3708 106.835 21.1121V2.48812C106.835 1.22945 107.443 0.600121 108.659 0.600121C109.896 0.600121 110.515 1.22945 110.515 2.48812V21.1121C110.515 22.3708 109.896 23.0001 108.659 23.0001ZM116.909 23.0001C115.672 23.0001 115.053 22.3708 115.053 21.1121V2.48812C115.053 1.76279 115.235 1.27212 115.597 1.01612C115.981 0.738787 116.536 0.600121 117.261 0.600121C118.243 0.600121 118.989 1.02679 119.501 1.88012L125.165 11.3521L130.765 1.91212C131.064 1.37879 131.405 1.02679 131.789 0.856121C132.195 0.685454 132.717 0.600121 133.357 0.600121C134.616 0.600121 135.245 1.22945 135.245 2.48812V21.1121C135.245 22.3708 134.616 23.0001 133.357 23.0001C132.099 23.0001 131.469 22.3708 131.469 21.1121V7.03212L126.957 14.8401C126.509 15.7148 125.901 16.1521 125.133 16.1521C124.365 16.1521 123.757 15.7148 123.309 14.8401L118.765 7.03212V21.1121C118.765 22.3708 118.147 23.0001 116.909 23.0001ZM139.9 23.0001C139.281 23.0001 138.855 22.8188 138.62 22.4561C138.385 22.0935 138.385 21.6028 138.62 20.9841L145.852 2.00812C146.172 1.06945 146.844 0.600121 147.868 0.600121H148.124C149.148 0.600121 149.82 1.06945 150.14 2.00812L157.404 20.9841C157.639 21.6028 157.628 22.0935 157.372 22.4561C157.137 22.8188 156.711 23.0001 156.092 23.0001H155.484C154.481 23.0001 153.82 22.5201 153.5 21.5601L152.252 18.0721H143.644L142.396 21.5601C142.076 22.5201 141.415 23.0001 140.412 23.0001H139.9ZM144.86 14.6481H151.068L147.996 5.91212L144.86 14.6481ZM2.096 69.0001C0.88 69.0001 0.272 68.3708 0.272 67.1121V48.4881C0.272 47.2295 0.88 46.6001 2.096 46.6001C3.33333 46.6001 3.952 47.2295 3.952 48.4881V56.3281L11.152 48.0401C11.6213 47.4641 12.048 47.0801 12.432 46.8881C12.816 46.6961 13.3067 46.6001 13.904 46.6001C14.4373 46.6001 14.832 46.7281 15.088 46.9841C15.344 47.2401 15.4613 47.5495 15.44 47.9121C15.44 48.2748 15.312 48.6161 15.056 48.9361L7.888 57.0321L15.504 66.7281C15.76 67.0695 15.8987 67.4321 15.92 67.8161C15.9413 68.2001 15.8133 68.5201 15.536 68.7761C15.28 69.0321 14.8427 69.1601 14.224 69.1601C13.584 69.1601 13.0613 69.0428 12.656 68.8081C12.272 68.5521 11.9307 68.2215 11.632 67.8161L3.952 57.5441V67.1121C3.952 68.3708 3.33333 69.0001 2.096 69.0001ZM21.6913 69.0001C20.4326 69.0001 19.8033 68.3708 19.8033 67.1121V48.4881C19.8033 47.2295 20.4326 46.6001 21.6913 46.6001H32.8913C34.1499 46.6001 34.7793 47.1761 34.7793 48.3281C34.7793 49.4588 34.1499 50.0241 32.8913 50.0241H23.4833V55.8481H31.8993C33.1579 55.8481 33.7873 56.4241 33.7873 57.5761C33.7873 58.7281 33.1579 59.3041 31.8993 59.3041H23.4833V65.5761H33.2433C34.5019 65.5761 35.1313 66.1415 35.1313 67.2721C35.1313 68.4241 34.5019 69.0001 33.2433 69.0001H21.6913ZM40.3773 69.0001C39.1613 69.0001 38.5533 68.3708 38.5533 67.1121V48.4881C38.5533 47.2295 39.1613 46.6001 40.3773 46.6001H40.7933C41.7533 46.6001 42.5106 47.0161 43.0653 47.8481L52.7933 62.5041V48.4881C52.7933 47.8695 52.9533 47.4001 53.2733 47.0801C53.6146 46.7601 54.0839 46.6001 54.6813 46.6001C55.9186 46.6001 56.5373 47.2295 56.5373 48.4881V67.1121C56.5373 68.3708 55.9506 69.0001 54.7773 69.0001H54.4573C53.4759 69.0001 52.7186 68.5841 52.1853 67.7521L42.2333 52.6481V67.1121C42.2333 68.3708 41.6146 69.0001 40.3773 69.0001ZM69.1493 69.4481C67.5706 69.4481 66.0986 69.1815 64.7333 68.6481C63.3679 68.0935 62.1946 67.1761 61.2133 65.8961C60.8506 65.3841 60.7226 64.9148 60.8293 64.4881C60.9573 64.0401 61.2773 63.6775 61.7893 63.4001C62.2799 63.1015 62.7279 63.0161 63.1333 63.1441C63.5386 63.2508 63.9439 63.5281 64.3493 63.9761C64.9253 64.5948 65.6079 65.0748 66.3973 65.4161C67.2079 65.7575 68.1679 65.9281 69.2773 65.9281C70.7706 65.9281 71.8159 65.6615 72.4133 65.1281C73.0319 64.5735 73.3413 63.8268 73.3413 62.8881C73.3413 62.2908 73.2026 61.7788 72.9253 61.3521C72.6693 60.9255 72.1146 60.5308 71.2613 60.1681C70.4293 59.7841 69.1386 59.4001 67.3893 59.0161C65.3199 58.5255 63.7839 57.7468 62.7812 56.6801C61.7999 55.6135 61.3093 54.2588 61.3093 52.6161C61.3093 51.3148 61.6186 50.1735 62.2373 49.1921C62.8773 48.1895 63.7626 47.4108 64.8933 46.8561C66.0453 46.3015 67.3893 46.0241 68.9253 46.0241C70.5253 46.0241 71.9226 46.3015 73.1173 46.8561C74.3119 47.4108 75.3146 48.1255 76.1253 49.0001C76.5306 49.4481 76.6906 49.8961 76.6053 50.3441C76.5199 50.7921 76.2426 51.1975 75.7733 51.5601C75.3039 51.9441 74.8559 52.0935 74.4293 52.0081C74.0026 51.9228 73.5759 51.6775 73.1493 51.2721C72.6159 50.7815 72.0079 50.3761 71.3253 50.0561C70.6426 49.7361 69.8319 49.5761 68.8933 49.5761C67.7839 49.5761 66.8773 49.8215 66.1733 50.3121C65.4906 50.7815 65.1493 51.4961 65.1493 52.4561C65.1493 52.8828 65.2453 53.2988 65.4373 53.7041C65.6506 54.0881 66.0986 54.4615 66.7812 54.8241C67.4853 55.1868 68.5626 55.5388 70.0133 55.8801C72.5733 56.4561 74.4186 57.3201 75.5493 58.4721C76.6799 59.6241 77.2453 61.0748 77.2453 62.8241C77.2453 64.9575 76.4986 66.6001 75.0053 67.7521C73.5333 68.8828 71.5813 69.4481 69.1493 69.4481ZM82.91 69.0001C81.6513 69.0001 81.022 68.3708 81.022 67.1121V48.4881C81.022 47.2295 81.6513 46.6001 82.91 46.6001H94.11C95.3687 46.6001 95.998 47.1761 95.998 48.3281C95.998 49.4588 95.3687 50.0241 94.11 50.0241H84.702V55.8481H93.118C94.3767 55.8481 95.006 56.4241 95.006 57.5761C95.006 58.7281 94.3767 59.3041 93.118 59.3041H84.702V65.5761H94.462C95.7207 65.5761 96.35 66.1415 96.35 67.2721C96.35 68.4241 95.7207 69.0001 94.462 69.0001H82.91ZM107.036 69.0001C105.777 69.0001 105.148 68.3708 105.148 67.1121V50.0241H100.284C99.0253 50.0241 98.396 49.4588 98.396 48.3281C98.396 47.1761 99.0253 46.6001 100.284 46.6001H113.692C114.972 46.6001 115.612 47.1761 115.612 48.3281C115.612 49.4588 114.972 50.0241 113.692 50.0241H108.892V67.1121C108.892 68.3708 108.273 69.0001 107.036 69.0001ZM126.837 69.4481C125.258 69.4481 123.786 69.1815 122.421 68.6481C121.055 68.0935 119.882 67.1761 118.901 65.8961C118.538 65.3841 118.41 64.9148 118.517 64.4881C118.645 64.0401 118.965 63.6775 119.477 63.4001C119.967 63.1015 120.415 63.0161 120.821 63.1441C121.226 63.2508 121.631 63.5281 122.037 63.9761C122.613 64.5948 123.295 65.0748 124.085 65.4161C124.895 65.7575 125.855 65.9281 126.965 65.9281C128.458 65.9281 129.503 65.6615 130.101 65.1281C130.719 64.5735 131.029 63.8268 131.029 62.8881C131.029 62.2908 130.89 61.7788 130.613 61.3521C130.357 60.9255 129.802 60.5308 128.949 60.1681C128.117 59.7841 126.826 59.4001 125.077 59.0161C123.007 58.5255 121.471 57.7468 120.469 56.6801C119.487 55.6135 118.997 54.2588 118.997 52.6161C118.997 51.3148 119.306 50.1735 119.925 49.1921C120.565 48.1895 121.45 47.4108 122.581 46.8561C123.733 46.3015 125.077 46.0241 126.613 46.0241C128.213 46.0241 129.61 46.3015 130.805 46.8561C131.999 47.4108 133.002 48.1255 133.813 49.0001C134.218 49.4481 134.378 49.8961 134.293 50.3441C134.207 50.7921 133.93 51.1975 133.461 51.5601C132.991 51.9441 132.543 52.0935 132.117 52.0081C131.69 51.9228 131.263 51.6775 130.837 51.2721C130.303 50.7815 129.695 50.3761 129.013 50.0561C128.33 49.7361 127.519 49.5761 126.581 49.5761C125.471 49.5761 124.565 49.8215 123.861 50.3121C123.178 50.7815 122.837 51.4961 122.837 52.4561C122.837 52.8828 122.933 53.2988 123.125 53.7041C123.338 54.0881 123.786 54.4615 124.469 54.8241C125.173 55.1868 126.25 55.5388 127.701 55.8801C130.261 56.4561 132.106 57.3201 133.237 58.4721C134.367 59.6241 134.933 61.0748 134.933 62.8241C134.933 64.9575 134.186 66.6001 132.693 67.7521C131.221 68.8828 129.269 69.4481 126.837 69.4481ZM146.998 69.4161C144.203 69.4161 142.07 68.6801 140.598 67.2081C139.126 65.7148 138.39 63.4855 138.39 60.5201V48.4881C138.39 47.8695 138.55 47.4001 138.87 47.0801C139.211 46.7601 139.68 46.6001 140.278 46.6001C141.515 46.6001 142.134 47.2295 142.134 48.4881V60.3281C142.134 62.2481 142.56 63.6455 143.414 64.5201C144.288 65.3735 145.483 65.8001 146.998 65.8001C148.512 65.8001 149.696 65.3735 150.55 64.5201C151.403 63.6455 151.83 62.2481 151.83 60.3281V48.4881C151.83 47.2295 152.448 46.6001 153.686 46.6001C154.923 46.6001 155.542 47.2295 155.542 48.4881V60.5201C155.542 63.4855 154.816 65.7148 153.366 67.2081C151.915 68.6801 149.792 69.4161 146.998 69.4161Z" fill="white"/>
</svg>
